<svg width="5" height="9" viewBox="0 0 5 9" fill="none" xmlns="http://www.w3.org/2000/svg">
<path d="M2.65137 5.99805H1.74316C1.74642 5.68555 1.77409 5.43001 1.82617 5.23145C1.88151 5.02962 1.97103 4.8457 2.09473 4.67969C2.21842 4.51367 2.38281 4.32487 2.58789 4.11328C2.73763 3.96029 2.87435 3.81706 2.99805 3.68359C3.125 3.54688 3.22754 3.40039 3.30566 3.24414C3.38379 3.08464 3.42285 2.89421 3.42285 2.67285C3.42285 2.44824 3.38216 2.25456 3.30078 2.0918C3.22266 1.92904 3.10547 1.80371 2.94922 1.71582C2.79622 1.62793 2.60579 1.58398 2.37793 1.58398C2.18913 1.58398 2.01009 1.61816 1.84082 1.68652C1.67155 1.75488 1.53483 1.86068 1.43066 2.00391C1.3265 2.14388 1.27279 2.3278 1.26953 2.55566H0.366211C0.372721 2.18783 0.463867 1.87207 0.639648 1.6084C0.818685 1.34473 1.05957 1.1429 1.3623 1.00293C1.66504 0.862956 2.00358 0.792969 2.37793 0.792969C2.79134 0.792969 3.1429 0.867839 3.43262 1.01758C3.72559 1.16732 3.94857 1.38216 4.10156 1.66211C4.25456 1.9388 4.33105 2.26758 4.33105 2.64844C4.33105 2.94141 4.27083 3.21159 4.15039 3.45898C4.0332 3.70312 3.88184 3.93262 3.69629 4.14746C3.51074 4.3623 3.3138 4.56738 3.10547 4.7627C2.92643 4.92871 2.80599 5.11589 2.74414 5.32422C2.68229 5.53255 2.65137 5.75716 2.65137 5.99805ZM1.7041 7.5459C1.7041 7.39941 1.74967 7.27572 1.84082 7.1748C1.93197 7.07389 2.0638 7.02344 2.23633 7.02344C2.41211 7.02344 2.54557 7.07389 2.63672 7.1748C2.72786 7.27572 2.77344 7.39941 2.77344 7.5459C2.77344 7.68587 2.72786 7.80632 2.63672 7.90723C2.54557 8.00814 2.41211 8.05859 2.23633 8.05859C2.0638 8.05859 1.93197 8.00814 1.84082 7.90723C1.74967 7.80632 1.7041 7.68587 1.7041 7.5459Z" fill="black"/>
</svg>
